<svg id="Capa_1" enable-background="new 0 0 511.36 511.36" height="512" viewBox="0 0 511.36 511.36" width="512" xmlns="http://www.w3.org/2000/svg"><g><g><path d="m465.235 255.666 23.608-15.864-1.119-9.138c-.165-1.353-4.103-31.991-25.566-82.577l15.347-16.153-5.354-9.632c-16.536-29.743-42.598-51.743-57.76-62.882l10.261-18.566-10.035-7.883c-27.459-21.57-60.469-32.971-95.461-32.971-22.198 0-43.515 4.567-63.476 13.586l-21.333 263.747 21.333 234.027 76.913-18.846c47.314-11.593 87.502-40.781 113.163-82.188 25.66-41.407 33.913-90.387 23.239-137.916z" fill="#f90"/><path d="m192.204 0c-34.992 0-68.001 11.401-95.46 32.972l-10.035 7.883 10.261 18.566c-15.163 11.139-41.224 33.139-57.76 62.882l-5.354 9.631 15.346 16.153c-21.463 50.586-25.401 81.225-25.566 82.577l-1.119 9.138 23.608 15.864-3.76 16.743c-10.675 47.529-2.422 96.509 23.239 137.916 25.66 41.407 65.849 70.595 113.163 82.188l76.913 18.847h.001v-497.774c-19.962-9.019-41.279-13.586-63.477-13.586z" fill="#fdae02"/></g><g><path d="m255.68 362.667-10.667 21.333 10.667 47c37.679 0 68.333-30.654 68.333-68.333z" fill="#fdc673"/><path d="m187.347 362.667c0 37.679 30.654 68.333 68.333 68.333v-68.333z" fill="#ffdf8e"/></g><g><path d="m316.644 99.502c-23.762 0-45.694 10.055-60.964 27.179l-10.667 118.652 10.667 117.343c12.533 15.632 31.784 25.658 53.333 25.658 37.679 0 68.333-30.654 68.333-68.334v-20.491l21.129-29.491v-88.685c0-45.122-36.709-81.831-81.831-81.831z" fill="#ffdf8e"/><path d="m194.716 99.502c-45.122 0-81.831 36.709-81.831 81.831v88.685l21.128 29.491v20.491c0 37.679 30.654 68.334 68.333 68.334 21.549 0 40.8-10.026 53.333-25.658v-235.996c-15.269-17.123-37.202-27.178-60.963-27.178z" fill="#ffecbb"/></g><path d="m166.347 203.667h46.667v30h-46.667z" fill="#ae6834"/><path d="m298.346 203.667h46.667v30h-46.667z" fill="#9e5e2f"/><g><path d="m298.346 324.333v-30h-42.666l-10.667 15 10.667 15z" fill="#ea9b58"/><path d="m213.013 294.333h42.667v30h-42.667z" fill="#eab065"/></g></g></svg>